<svg viewBox="0 0 200 150" xmlns="http://www.w3.org/2000/svg">
  <!-- Black Background -->
  <rect width="200" height="150" fill="black" />
  
  <!-- Logo (scaled and centered) -->
  <g transform="translate(50, 10) scale(1)">
    <path 
      d="M 85 25 L 88 22 C 95 35 95 60 85 75 L 82 72 C 88 60 88 40 85 25 Z" 
      fill="white"
    />
    <path 
      d="M 80 80 C 60 95 40 95 20 80 L 18 85 C 40 105 65 100 85 85 Z" 
      fill="white"
    />
    <path 
      d="M 15 75 C 5 60 5 40 15 25 L 12 22 C 0 40 -2 65 10 80 Z" 
      fill="white"
    />
    <path 
      d="M 20 20 C 40 5 60 5 80 20 L 82 15 C 60 -2 35 -2 15 15 Z" 
      fill="white"
    />
    <path 
      d="M 20 85 L 25 88 L 88 15 L 82 12 L 18 82 Z" 
      fill="white"
    />
  </g>
  
  <!-- Text -->
  <text x="100" y="130" font-family="sans-serif" font-size="24" font-weight="bold" text-anchor="middle" fill="white" letter-spacing="-0.03em">SHAIVRA</text>
</svg>
